<?xml version="1.0" encoding="UTF-8"?> <svg xmlns="http://www.w3.org/2000/svg" width="129" height="87" viewBox="0 0 129 87" fill="none"> <path d="M30 20.6821C38 20.6821 42 16.606 42 16.606C42 16.606 49.521 7.96374 56 7.18207C61.5816 6.50867 66.2408 7.6011 69.5 12.1821C72.7592 16.763 73 21.1817 64.5 31.1817" stroke="#255240" stroke-width="2"></path> <path d="M41.1055 14.0689C35.8266 16.7928 30.2746 13.8713 27.9998 13.0002C24.4801 11.8674 20.9394 11.5388 17.836 11.5861C11.8439 11.6775 8.00017 16.877 8.00017 22.6678V22.6678C8.00017 26.9677 10.096 31.066 13.6946 33.6766C18.1352 36.8981 23.6255 40.788 24.0782 40.6638" stroke="#255240" stroke-width="2"></path> <path d="M27.4417 52C29.1165 57.1675 28.0372 64.1627 27.3394 67.5824C26.6415 71.002 22.383 85.6176 27.4419 85.9979C30.241 86.2083 37.5 69.5 37.5 69.5C37.5 69.5 42.7855 57.6663 47 63.3326" stroke="#255240" stroke-width="2"></path> <path d="M32.8475 51.168C31.5035 51.168 30.3035 50.888 29.2475 50.328C28.2075 49.752 27.3915 48.968 26.7995 47.976C26.2075 46.984 25.9115 45.856 25.9115 44.592C25.9115 43.312 26.2075 42.184 26.7995 41.208C27.3915 40.216 28.2075 39.44 29.2475 38.88C30.3035 38.32 31.5035 38.04 32.8475 38.04C34.0955 38.04 35.1915 38.296 36.1355 38.808C37.0955 39.304 37.8235 40.04 38.3195 41.016L36.0155 42.36C35.6315 41.752 35.1595 41.304 34.5995 41.016C34.0555 40.728 33.4635 40.584 32.8235 40.584C32.0875 40.584 31.4235 40.744 30.8315 41.064C30.2395 41.384 29.7755 41.848 29.4395 42.456C29.1035 43.048 28.9355 43.76 28.9355 44.592C28.9355 45.424 29.1035 46.144 29.4395 46.752C29.7755 47.344 30.2395 47.8 30.8315 48.12C31.4235 48.44 32.0875 48.6 32.8235 48.6C33.4635 48.6 34.0555 48.456 34.5995 48.168C35.1595 47.88 35.6315 47.432 36.0155 46.824L38.3195 48.168C37.8235 49.128 37.0955 49.872 36.1355 50.4C35.1915 50.912 34.0955 51.168 32.8475 51.168ZM41.2756 51V33.192H44.2756V51H41.2756ZM48.6931 51V38.184H51.6931V51H48.6931ZM50.2051 36.072C49.6451 36.072 49.1811 35.896 48.8131 35.544C48.4611 35.192 48.2851 34.768 48.2851 34.272C48.2851 33.76 48.4611 33.336 48.8131 33C49.1811 32.648 49.6451 32.472 50.2051 32.472C50.7651 32.472 51.2211 32.64 51.5731 32.976C51.9411 33.296 52.1251 33.704 52.1251 34.2C52.1251 34.728 51.9491 35.176 51.5971 35.544C51.2451 35.896 50.7811 36.072 50.2051 36.072ZM61.5346 51.168C60.3026 51.168 59.1906 50.896 58.1986 50.352C57.2226 49.792 56.4546 49.024 55.8946 48.048C55.3346 47.072 55.0546 45.92 55.0546 44.592C55.0546 43.264 55.3346 42.112 55.8946 41.136C56.4546 40.16 57.2226 39.4 58.1986 38.856C59.1906 38.312 60.3026 38.04 61.5346 38.04C62.6066 38.04 63.5666 38.28 64.4146 38.76C65.2626 39.224 65.9346 39.936 66.4306 40.896C66.9266 41.856 67.1746 43.088 67.1746 44.592C67.1746 46.08 66.9346 47.312 66.4546 48.288C65.9746 49.248 65.3106 49.968 64.4626 50.448C63.6146 50.928 62.6386 51.168 61.5346 51.168ZM61.8946 48.6C62.6146 48.6 63.2546 48.44 63.8146 48.12C64.3906 47.8 64.8466 47.336 65.1826 46.728C65.5346 46.12 65.7106 45.408 65.7106 44.592C65.7106 43.76 65.5346 43.048 65.1826 42.456C64.8466 41.848 64.3906 41.384 63.8146 41.064C63.2546 40.744 62.6146 40.584 61.8946 40.584C61.1746 40.584 60.5266 40.744 59.9506 41.064C59.3906 41.384 58.9346 41.848 58.5826 42.456C58.2466 43.048 58.0786 43.76 58.0786 44.592C58.0786 45.408 58.2466 46.12 58.5826 46.728C58.9346 47.336 59.3906 47.8 59.9506 48.12C60.5266 48.44 61.1746 48.6 61.8946 48.6ZM65.7826 51V47.976L65.9026 44.568L65.6626 41.16V33.192H68.6386V51H65.7826ZM79.0912 51.168C77.6672 51.168 76.4192 50.888 75.3472 50.328C74.2912 49.752 73.4672 48.968 72.8752 47.976C72.2992 46.984 72.0112 45.856 72.0112 44.592C72.0112 43.312 72.2912 42.184 72.8512 41.208C73.4272 40.216 74.2112 39.44 75.2032 38.88C76.2112 38.32 77.3552 38.04 78.6352 38.04C79.8832 38.04 80.9952 38.312 81.9712 38.856C82.9472 39.4 83.7152 40.168 84.2752 41.16C84.8352 42.152 85.1152 43.32 85.1152 44.664C85.1152 44.792 85.1072 44.936 85.0912 45.096C85.0912 45.256 85.0832 45.408 85.0672 45.552H74.3872V43.56H83.4832L82.3072 44.184C82.3232 43.448 82.1712 42.8 81.8512 42.24C81.5312 41.68 81.0912 41.24 80.5312 40.92C79.9872 40.6 79.3552 40.44 78.6352 40.44C77.8992 40.44 77.2512 40.6 76.6912 40.92C76.1472 41.24 75.7152 41.688 75.3952 42.264C75.0912 42.824 74.9392 43.488 74.9392 44.256V44.736C74.9392 45.504 75.1152 46.184 75.4672 46.776C75.8192 47.368 76.3152 47.824 76.9552 48.144C77.5952 48.464 78.3312 48.624 79.1632 48.624C79.8832 48.624 80.5312 48.512 81.1072 48.288C81.6832 48.064 82.1952 47.712 82.6432 47.232L84.2512 49.08C83.6752 49.752 82.9472 50.272 82.0672 50.64C81.2032 50.992 80.2112 51.168 79.0912 51.168ZM95.7489 38.04C96.7729 38.04 97.6849 38.24 98.4849 38.64C99.3009 39.04 99.9409 39.656 100.405 40.488C100.869 41.304 101.101 42.36 101.101 43.656V51H98.1009V44.04C98.1009 42.904 97.8289 42.056 97.2849 41.496C96.7569 40.936 96.0129 40.656 95.0529 40.656C94.3489 40.656 93.7249 40.8 93.1809 41.088C92.6369 41.376 92.2129 41.808 91.9089 42.384C91.6209 42.944 91.4769 43.656 91.4769 44.52V51H88.4769V38.184H91.3329V41.64L90.8289 40.584C91.2769 39.768 91.9249 39.144 92.7729 38.712C93.6369 38.264 94.6289 38.04 95.7489 38.04ZM110.211 51.168C108.803 51.168 107.715 50.808 106.947 50.088C106.179 49.352 105.795 48.272 105.795 46.848V35.352H108.795V46.776C108.795 47.384 108.947 47.856 109.251 48.192C109.571 48.528 110.011 48.696 110.571 48.696C111.243 48.696 111.803 48.52 112.251 48.168L113.091 50.304C112.739 50.592 112.307 50.808 111.795 50.952C111.283 51.096 110.755 51.168 110.211 51.168ZM103.683 40.68V38.28H112.227V40.68H103.683ZM123.934 51V48.408L123.766 47.856V43.32C123.766 42.44 123.502 41.76 122.974 41.28C122.446 40.784 121.646 40.536 120.574 40.536C119.854 40.536 119.142 40.648 118.438 40.872C117.75 41.096 117.166 41.408 116.686 41.808L115.51 39.624C116.198 39.096 117.014 38.704 117.958 38.448C118.918 38.176 119.91 38.04 120.934 38.04C122.79 38.04 124.222 38.488 125.23 39.384C126.254 40.264 126.766 41.632 126.766 43.488V51H123.934ZM119.902 51.168C118.942 51.168 118.102 51.008 117.382 50.688C116.662 50.352 116.102 49.896 115.702 49.32C115.318 48.728 115.126 48.064 115.126 47.328C115.126 46.608 115.294 45.96 115.63 45.384C115.982 44.808 116.55 44.352 117.334 44.016C118.118 43.68 119.158 43.512 120.454 43.512H124.174V45.504H120.67C119.646 45.504 118.958 45.672 118.606 46.008C118.254 46.328 118.078 46.728 118.078 47.208C118.078 47.752 118.294 48.184 118.726 48.504C119.158 48.824 119.758 48.984 120.526 48.984C121.262 48.984 121.918 48.816 122.494 48.48C123.086 48.144 123.51 47.648 123.766 46.992L124.27 48.792C123.982 49.544 123.462 50.128 122.71 50.544C121.974 50.96 121.038 51.168 119.902 51.168Z" fill="#255240"></path> </svg> 